<svg id="iconfinder_Car-Accessories_17_2178866" xmlns="https://www.w3.org/2000/svg" xmlns:xlink="https://www.w3.org/1999/xlink" width="155.834" height="155.637" viewBox="0 0 155.834 155.637">
  <defs>
    <linearGradient id="linear-gradient" x1="0.5" x2="0.5" y2="1" gradientUnits="objectBoundingBox">
      <stop offset="0" stop-color="#4b09c0"/>
      <stop offset="1" stop-color="#fa21fd"/>
    </linearGradient>
  </defs>
  <path id="Path_8" data-name="Path 8" d="M119.026,31a21.209,21.209,0,0,0-17.842,10.312,15.513,15.513,0,0,0,.09,16.085,17.465,17.465,0,0,0,11.72,8.445,18.371,18.371,0,0,0,4.632.307c-6.889,5.183-18.933,10.315-38.469,7.6C37.777,68,12.98,78.867,1.092,107.936a.4.4,0,0,1-.025.06l4.667,1.865c0-.005,0-.008.005-.013.133-.292,5.889-12.926,32.912-13.5,16.068-.357,32.3,4.388,46.567,8.566,11.446,3.35,22.253,6.515,31.294,6.515a40.261,40.261,0,0,0,40.214-40.214C156.727,45.283,143.338,31,119.026,31Zm-2.513,75.4c-8.319,0-18.792-3.066-29.881-6.311C72.014,95.812,55.4,90.976,38.546,91.32c-11.765.251-19.969,2.642-25.631,5.537C25.472,79.885,46.33,74.267,78.468,78.729c33.023,4.594,46.9-11.866,50.365-17.015a2.727,2.727,0,0,0-.455-3.6,2.779,2.779,0,0,0-3.642-.015,12.655,12.655,0,0,1-10.777,2.81,12.264,12.264,0,0,1-8.332-6.035,10.528,10.528,0,0,1-.083-11.051,16.241,16.241,0,0,1,13.482-7.794c27,0,32.674,19.134,32.674,35.187A35.226,35.226,0,0,1,116.513,106.4Z" transform="translate(-0.893 44.21)" fill="url(#linear-gradient)"/>
  <path id="Path_9" data-name="Path 9" d="M47.54,69.134H40V74.16h7.54c21.047,0,35.187-12.119,35.187-30.16H77.7C77.7,62.551,61.454,69.134,47.54,69.134Z" transform="translate(58.027 63.883)" fill="url(#linear-gradient)"/>
  <rect id="Rectangle_1090" data-name="Rectangle 1090" width="5.027" height="5.027" transform="translate(87.973 133.017)" fill="url(#linear-gradient)"/>
  <rect id="Rectangle_1091" data-name="Rectangle 1091" width="5.027" height="5.027" transform="translate(135.727 97.83)" fill="url(#linear-gradient)"/>
  <path id="Path_10" data-name="Path 10" d="M41.149,106.418l1.709-4.615C23.043,89.365,28.633,76.786,36.366,59.376c2.843-6.4,5.783-13.017,7.593-20.175C51.009,11.343,27.341,1.177,27.1,1.076l-2.74,4.1c.123.123,11.546,13.311-15.027,49.516C1.343,65.581-.917,75.4,2.614,83.886,9.971,101.56,39.88,106.227,41.149,106.418ZM13.389,57.667C31.2,33.4,33.034,18.242,31.553,9.9c5.25,4.607,11.252,13.381,7.533,28.069-1.707,6.741-4.554,13.16-7.314,19.368-6.517,14.668-12.728,28.655-.641,41.493-8.719-2.737-20.145-7.912-23.874-16.875C4.447,75.21,6.508,67.036,13.389,57.667Z" transform="translate(-0.998 -1.076)" fill="url(#linear-gradient)"/>
  <path id="Path_11" data-name="Path 11" d="M17.633,68.642C23.243,82.118,45.841,85.647,46.8,85.79l1.709-4.615C34.242,72.221,38.3,63.075,43.926,50.42a94.213,94.213,0,0,0,5.685-15.113C54.982,14.062,37.109,6.275,36.928,6.2l-2.812,4.031c.08.093,8,9.616-11.408,36.064C16.62,54.59,14.914,62.107,17.633,68.642ZM40.719,15.007c3.325,3.536,6.417,9.578,4.014,19.069a90.344,90.344,0,0,1-5.4,14.3c-4.456,10.036-9.036,20.338-1.835,29.791C31.283,75.913,24.563,72.2,22.276,66.706c-2-4.8-.488-10.664,4.486-17.44C38.939,32.671,41.229,21.657,40.719,15.007Z" transform="translate(22.279 6.678)" fill="url(#linear-gradient)"/>
  <path id="Path_12" data-name="Path 12" d="M30.416,48.593c3.26,7.827,15.462,9.865,16.842,10.071l1.709-4.615c-6.691-4.2-5.472-7.756-2.071-15.407a52.557,52.557,0,0,0,3.174-8.45c2.544-10.053-3.861-15.686-7.6-17.257L39.7,17.01c.04.043,3.4,4.934-6.371,18.242C29.745,40.135,28.765,44.624,30.416,48.593Zm6.965-10.365c4.961-6.761,7.035-11.931,7.683-15.754a10.787,10.787,0,0,1,.133,6.487A48.724,48.724,0,0,1,42.3,36.6c-2.046,4.609-4.273,9.621-2.569,14.412-2.094-1.093-3.918-2.531-4.675-4.358C34.131,44.426,34.91,41.588,37.381,38.228Z" transform="translate(42.346 16.872)" fill="url(#linear-gradient)"/>
</svg>
